<?xml version="1.0" encoding="UTF-8"?>
<level>
  <owner>stolbitsa</owner>
  <repo>sedaya-noch-verse-2</repo>
  <version>v1.0.3</version>
  <next number="1" owner="stolbitsa" repo="sedaya-noch-chorus"/>
  <readme>
    <ru>e1d8f52d9a4f767e5b05d92215b3745c8b50b41cca8766fdbcbb603bab2f93b6</ru>
    <en>f84b0d465187bfe87016ea9418d76b11b032a24c830c91382717c943268f2bdf</en>
  </readme>
  <license>b1b99f5538d1fd3702219bff50c665196dfa42f6ee755c37fe41a6178d6bc6e5</license>
  <exercise number="1">
    <scale>minor</scale>
    <bpm>129</bpm>
    <lowestNote>86</lowestNote>
    <tonalities>5</tonalities>
    <video name="17-noch-verse-2-1.mp4" size="1939269" type="video/mp4" volume="0.77">8af3ed83cc87f8a13f716854f08e3f5bd88de896c0257580ebcf9c773b95b9fa</video>
    <notes>
      <note number="1" values="5" ticks="93" durationTicks="31" ppq="96" velocity="0.887"/>
      <note number="2" values="5" ticks="142" durationTicks="36" ppq="96" velocity="0.787"/>
      <note number="3" values="5" ticks="189" durationTicks="37" ppq="96" velocity="0.889"/>
      <note number="4" values="5" ticks="237" durationTicks="86" ppq="96" velocity="0.732"/>
      <note number="5" values="6" ticks="334" durationTicks="95" ppq="96" velocity="0.897"/>
    </notes>
  </exercise>
  <exercise number="2">
    <scale>minor</scale>
    <bpm>129</bpm>
    <lowestNote>86</lowestNote>
    <tonalities>5</tonalities>
    <video name="17-noch-verse-2-2.mp4" size="1877785" type="video/mp4" volume="0.783">0ac9786d25e26533cbd71e452073aab7726f75ae045c93ae60ca980a372284a9</video>
    <notes>
      <note number="1" values="5" ticks="186" durationTicks="31" ppq="96" velocity="0.887"/>
      <note number="2" values="5" ticks="235" durationTicks="92" ppq="96" velocity="0.787"/>
      <note number="3" values="4" ticks="425" durationTicks="35" ppq="96" velocity="0.889"/>
      <note number="4" values="4" ticks="474" durationTicks="86" ppq="96" velocity="0.732"/>
      <note number="5" values="3" ticks="568" durationTicks="40" ppq="96" velocity="0.897"/>
      <note number="6" values="5" ticks="618" durationTicks="88" ppq="96" velocity="0.921"/>
      <note number="7" values="4" ticks="714" durationTicks="95" ppq="96" velocity="0.921"/>
    </notes>
  </exercise>
  <exercise number="3">
    <scale>minor</scale>
    <bpm>129</bpm>
    <lowestNote>86</lowestNote>
    <tonalities>5</tonalities>
    <video name="17-noch-verse-2-3.mp4" size="1948436" type="video/mp4" volume="0.76">3ac0258d0feacf5cbdd9af670d01864352ed504a28985c6243fec4f112f0a3a3</video>
    <notes>
      <note number="1" values="4" ticks="291" durationTicks="31" ppq="96" velocity="0.887"/>
      <note number="2" values="4" ticks="340" durationTicks="36" ppq="96" velocity="0.787"/>
      <note number="3" values="4" ticks="387" durationTicks="37" ppq="96" velocity="0.889"/>
      <note number="4" values="5" ticks="440" durationTicks="86" ppq="96" velocity="0.732"/>
      <note number="5" values="6" ticks="532" durationTicks="142" ppq="96" velocity="0.897"/>
    </notes>
  </exercise>
  <exercise number="4">
    <scale>minor</scale>
    <bpm>129</bpm>
    <lowestNote>86</lowestNote>
    <tonalities>5</tonalities>
    <video name="17-noch-verse-2-4.mp4" size="1840052" type="video/mp4" volume="0.765">3f544079405022a3620608fb013d333a44a0624d8b55561550ac627dbd02a73d</video>
    <notes>
      <note number="1" values="6" ticks="179" durationTicks="31" ppq="96" velocity="0.797"/>
      <note number="2" values="6" ticks="228" durationTicks="78" ppq="96" velocity="0.887"/>
      <note number="3" values="5" ticks="371" durationTicks="29" ppq="96" velocity="0.847"/>
      <note number="4" values="5" ticks="417" durationTicks="67" ppq="96" velocity="0.884"/>
      <note number="5" values="3" ticks="515" durationTicks="85" ppq="96" velocity="0.747"/>
      <note number="6" values="1" ticks="612" durationTicks="139" ppq="96" velocity="0.913"/>
    </notes>
  </exercise>
  <exercise number="5">
    <scale>minor</scale>
    <bpm>129</bpm>
    <lowestNote>86</lowestNote>
    <tonalities>5</tonalities>
    <video name="17-noch-verse-2-5.mp4" size="1856335" type="video/mp4" volume="0.713">11212890a558be512770541946a19280398650e5e665bab351880bb2e5e22382</video>
    <notes>
      <note number="1" values="5" ticks="187" durationTicks="31" ppq="96" velocity="0.882"/>
      <note number="2" values="5" ticks="236" durationTicks="33" ppq="96" velocity="0.78"/>
      <note number="3" values="5" ticks="283" durationTicks="37" ppq="96" velocity="0.882"/>
      <note number="4" values="3" ticks="380" durationTicks="39" ppq="96" velocity="0.724"/>
      <note number="5" values="2" ticks="428" durationTicks="90" ppq="96" velocity="0.89"/>
      <note number="6" values="1" ticks="525" durationTicks="95" ppq="96" velocity="0.89"/>
    </notes>
  </exercise>
  <exercise number="6">
    <scale>minor</scale>
    <bpm>129</bpm>
    <lowestNote>86</lowestNote>
    <tonalities>5</tonalities>
    <video name="17-noch-verse-2-6.mp4" size="1941910" type="video/mp4" volume="0.718">e469a7633aa1f3de6f69ade835335f52e3f76ac9675d5bf5cc7a68a7359b90e1</video>
    <notes>
      <note number="1" values="4" ticks="188" durationTicks="31" ppq="96" velocity="0.882"/>
      <note number="2" values="4" ticks="237" durationTicks="33" ppq="96" velocity="0.78"/>
      <note number="3" values="4" ticks="284" durationTicks="37" ppq="96" velocity="0.882"/>
      <note number="4" values="3" ticks="381" durationTicks="39" ppq="96" velocity="0.717"/>
      <note number="5" values="5" ticks="429" durationTicks="133" ppq="96" velocity="0.89"/>
      <note number="6" values="4" ticks="619" durationTicks="95" ppq="96" velocity="0.89"/>
    </notes>
  </exercise>
  <exercise number="7">
    <scale>minor</scale>
    <bpm>129</bpm>
    <lowestNote>86</lowestNote>
    <tonalities>5</tonalities>
    <video name="17-noch-verse-2-7.mp4" size="1866780" type="video/mp4" volume="0.708">1b143d65c307e06451dd09db4660b327b1dcfc7b613e18062e01dcc4dc9c805b</video>
    <notes>
      <note number="1" values="2" ticks="186" durationTicks="31" ppq="96" velocity="0.887"/>
      <note number="2" values="2" ticks="235" durationTicks="36" ppq="96" velocity="0.787"/>
      <note number="3" values="2" ticks="282" durationTicks="37" ppq="96" velocity="0.889"/>
      <note number="4" values="3" ticks="330" durationTicks="86" ppq="96" velocity="0.732"/>
      <note number="5" values="4" ticks="426" durationTicks="237" ppq="96" velocity="0.897"/>
      <note number="6" values="5" ticks="764" durationTicks="41" ppq="96" velocity="0.897"/>
      <note number="7" values="4" ticks="811" durationTicks="82" ppq="96" velocity="0.897"/>
      <note number="8" values="3" ticks="907" durationTicks="75" ppq="96" velocity="0.897"/>
      <note number="9" values="3" ticks="1004" durationTicks="87" ppq="96" velocity="0.897"/>
      <note number="10" values="4" ticks="1145" durationTicks="39" ppq="96" velocity="0.897"/>
      <note number="11" values="5" ticks="1194" durationTicks="94" ppq="96" velocity="0.897"/>
    </notes>
  </exercise>
  <exercise number="8">
    <scale>minor</scale>
    <bpm>129</bpm>
    <lowestNote>3</lowestNote>
    <tonalities>5</tonalities>
    <video name="17-noch-verse-2-8.mp4" size="1901485" type="video/mp4" volume="0.705">be2f4db53db316a8bab1f81d66f4a99a3bb3ca32ce696b88164d7f4ed4d2ef26</video>
    <notes>
      <note number="1" values="6" ticks="186" durationTicks="31" ppq="96" velocity="0.882"/>
      <note number="2" values="6" ticks="235" durationTicks="33" ppq="96" velocity="0.78"/>
      <note number="3" values="6" ticks="282" durationTicks="37" ppq="96" velocity="0.882"/>
      <note number="4" values="18" ticks="379" durationTicks="39" ppq="96" velocity="0.717"/>
      <note number="5" values="7" ticks="427" durationTicks="90" ppq="96" velocity="0.89"/>
      <note number="6" values="4" ticks="524" durationTicks="95" ppq="96" velocity="0.89"/>
    </notes>
  </exercise>
  <exercise number="9">
    <scale>minor</scale>
    <bpm>129</bpm>
    <lowestNote>3</lowestNote>
    <tonalities>5</tonalities>
    <video name="17-noch-verse-2-9.mp4" size="1854915" type="video/mp4" volume="0.701">a34243466757cb1a77fb8c734e43068a614c5cb323d5bafe6aa9c91e641addf4</video>
    <notes>
      <note number="1" values="38" ticks="186" durationTicks="31" ppq="96" velocity="0.882"/>
      <note number="2" values="38" ticks="235" durationTicks="33" ppq="96" velocity="0.78"/>
      <note number="3" values="38" ticks="284" durationTicks="37" ppq="96" velocity="0.882"/>
      <note number="4" values="28" ticks="379" durationTicks="30" ppq="96" velocity="0.717"/>
      <note number="5" values="28" ticks="428" durationTicks="90" ppq="96" velocity="0.89"/>
      <note number="6" values="18" ticks="524" durationTicks="139" ppq="96" velocity="0.89"/>
    </notes>
  </exercise>
  <exercise number="10">
    <scale>minor</scale>
    <bpm>129</bpm>
    <lowestNote>86</lowestNote>
    <tonalities>5</tonalities>
    <video name="17-noch-verse-2-10.mp4" size="1999304" type="video/mp4" volume="0.701">f033a456f92fc2cf18df5008f7c5507d2e13899700d55ed672333ed06d493a36</video>
    <notes>
      <note number="1" values="4" ticks="186" durationTicks="31" ppq="96" velocity="0.882"/>
      <note number="2" values="4" ticks="235" durationTicks="36" ppq="96" velocity="0.78"/>
      <note number="3" values="4" ticks="282" durationTicks="37" ppq="96" velocity="0.882"/>
      <note number="4" values="3" ticks="330" durationTicks="86" ppq="96" velocity="0.724"/>
      <note number="5" values="5" ticks="425" durationTicks="144" ppq="96" velocity="0.89"/>
      <note number="6" values="4" ticks="618" durationTicks="41" ppq="96" velocity="0.89"/>
      <note number="7" values="4" ticks="664" durationTicks="86" ppq="96" velocity="0.89"/>
      <note number="8" values="3" ticks="762" durationTicks="48" ppq="96" velocity="0.89"/>
      <note number="9" values="1" ticks="812" durationTicks="90" ppq="96" velocity="0.89"/>
    </notes>
  </exercise>
</level>
